<mxfile host="app.diagrams.net" modified="2023-05-27T21:30:15.389Z" agent="Mozilla/5.0 (Windows NT 10.0; Win64; x64) AppleWebKit/537.36 (KHTML, like Gecko) Chrome/113.0.0.0 Safari/537.36" version="21.2.2" etag="ZqYGV3qKQtpIkF3-2KgI" type="github">
  <diagram name="Page-1" id="bHzB0BmCGIMbFrH_pZ3M">
    <mxGraphModel>
      <root>
        <mxCell id="0" />
        <mxCell id="1" parent="0" />
      </root>
    </mxGraphModel>
  </diagram>
</mxfile>
